<svg width="24" height="24" viewBox="0 0 24 24" fill="none" xmlns="http://www.w3.org/2000/svg">
<path d="M4 20L8.59366 18.2332C8.88748 18.1202 9.03439 18.0637 9.17183 17.9899C9.29392 17.9244 9.4103 17.8487 9.51977 17.7638C9.64301 17.6682 9.75431 17.5568 9.97691 17.3342L19.3142 7.99696C20.2286 7.0826 20.2286 5.60013 19.3142 4.68577C18.3999 3.77142 16.9174 3.77141 16.003 4.68577L6.66573 14.0231C6.44314 14.2457 6.33183 14.357 6.2362 14.4803C6.15125 14.5897 6.07561 14.7061 6.01008 14.8282C5.9363 14.9656 5.8798 15.1125 5.76679 15.4064L4 20ZM4 20L5.7037 15.5705C5.82562 15.2535 5.88657 15.095 5.99113 15.0224C6.0825 14.959 6.19556 14.935 6.30483 14.9558C6.42985 14.9797 6.54992 15.0998 6.79007 15.3399L8.66013 17.21C8.90028 17.4501 9.02035 17.5702 9.04422 17.6952C9.06509 17.8044 9.0411 17.9175 8.97765 18.0089C8.90506 18.1135 8.74657 18.1744 8.42959 18.2963L4 20Z" stroke="white" stroke-width="2" stroke-linecap="round" stroke-linejoin="round"/>
</svg>
