<svg width="24" height="24" viewBox="0 0 24 24" fill="none" xmlns="http://www.w3.org/2000/svg">
<g clip-path="url(#clip0_730_95)">
<path d="M11.9833 0.900024C5.84997 0.900024 0.883301 5.86669 0.883301 12C0.883301 16.7 3.79997 20.7167 7.9333 22.3334C7.8333 21.45 7.74997 20.1167 7.96663 19.15C8.16663 18.2834 9.26663 13.6334 9.26663 13.6334C9.26663 13.6334 8.9333 12.9667 8.9333 11.9834C8.9333 10.4334 9.8333 9.28336 10.9333 9.28336C11.8833 9.28336 12.3333 10 12.3333 10.85C12.3333 11.8 11.7333 13.2334 11.4166 14.55C11.15 15.65 11.9666 16.55 13.0666 16.55C15.0333 16.55 16.55 14.4667 16.55 11.4667C16.55 8.81669 14.6333 6.95003 11.9166 6.95003C8.76663 6.95003 6.89997 9.31669 6.89997 11.7667C6.89997 12.7167 7.26663 13.75 7.7333 14.3C7.81663 14.4167 7.8333 14.5 7.81663 14.6167C7.7333 14.9667 7.54997 15.7167 7.51663 15.8667C7.46663 16.0667 7.34997 16.1167 7.14997 16.0167C5.76663 15.3667 4.89997 13.35 4.89997 11.7167C4.89997 8.21669 7.44997 5.00002 12.2333 5.00002C16.0833 5.00002 19.0666 7.75003 19.0666 11.4C19.0666 15.2167 16.65 18.3 13.3166 18.3C12.2 18.3 11.1333 17.7167 10.7666 17.0334C10.7666 17.0334 10.2166 19.15 10.0833 19.6667C9.8333 20.6334 9.14997 21.8334 8.69997 22.5834C9.7333 22.9 10.8333 23.0834 11.9833 23.0834C18.1166 23.0834 23.0833 18.1167 23.0833 11.9834C23.0833 5.86669 18.1166 0.900024 11.9833 0.900024Z" fill="white"/>
</g>
<defs>
<clipPath id="clip0_730_95">
<rect width="24" height="24" fill="white"/>
</clipPath>
</defs>
</svg>
